<svg width="60" height="60" viewBox="0 0 60 60" fill="none" xmlns="http://www.w3.org/2000/svg">
<path d="M48.125 52.5L44.625 49L48.5625 45H38.125V40H48.5625L44.625 36L48.125 32.5L58.125 42.5L48.125 52.5ZM25 37.5C27.3333 37.5 29.4375 36.9271 31.3125 35.7812C33.1875 34.6354 34.6667 33.125 35.75 31.25C34.2917 30.0417 32.6458 29.1146 30.8125 28.4688C28.9792 27.8229 27.0417 27.5 25 27.5C22.9583 27.5 21.0208 27.8229 19.1875 28.4688C17.3542 29.1146 15.7083 30.0417 14.25 31.25C15.3333 33.125 16.8125 34.6354 18.6875 35.7812C20.5625 36.9271 22.6667 37.5 25 37.5ZM25 25C26.375 25 27.5521 24.5104 28.5312 23.5312C29.5104 22.5521 30 21.375 30 20C30 18.625 29.5104 17.4479 28.5312 16.4688C27.5521 15.4896 26.375 15 25 15C23.625 15 22.4479 15.4896 21.4688 16.4688C20.4896 17.4479 20 18.625 20 20C20 21.375 20.4896 22.5521 21.4688 23.5312C22.4479 24.5104 23.625 25 25 25ZM25 55C18.2917 49.2917 13.2812 43.9896 9.96875 39.0938C6.65625 34.1979 5 29.6667 5 25.5C5 19.25 7.01042 14.2708 11.0312 10.5625C15.0521 6.85417 19.7083 5 25 5C30.2917 5 34.9479 6.85417 38.9688 10.5625C42.9896 14.2708 45 19.25 45 25.5C45 25.875 44.9896 26.2604 44.9688 26.6562C44.9479 27.0521 44.8958 27.4583 44.8125 27.875H39.75C39.8333 27.4583 39.8958 27.0521 39.9375 26.6562C39.9792 26.2604 40 25.875 40 25.5C40 20.9583 38.5521 17.2396 35.6562 14.3438C32.7604 11.4479 29.2083 10 25 10C20.7917 10 17.2396 11.4479 14.3438 14.3438C11.4479 17.2396 10 20.9583 10 25.5C10 28.4583 11.2292 31.8438 13.6875 35.6562C16.1458 39.4688 19.9167 43.7083 25 48.375C25.9583 47.5417 26.8438 46.7083 27.6562 45.875C28.4688 45.0417 29.25 44.2292 30 43.4375L30.5625 44L31.7812 45.2188C32.2188 45.6562 32.6146 46.0625 32.9688 46.4375L33.5 47C32.2917 48.2917 30.9792 49.6042 29.5625 50.9375C28.1458 52.2708 26.625 53.625 25 55Z" fill="white"/>
</svg>
