<svg width="56" height="56" viewBox="0 0 56 56" fill="none" xmlns="http://www.w3.org/2000/svg">
<g clip-path="url(#clip0_167_239)">
<path d="M28.0001 0.5C28.5032 0.5 29.0063 0.607422 29.4657 0.811523L50.061 9.39453C52.4672 10.3936 54.261 12.7246 54.2501 15.5391C54.1954 26.1953 49.7329 45.6924 30.8876 54.5547C29.061 55.4141 26.9391 55.4141 25.1126 54.5547C6.26724 45.6924 1.80474 26.1953 1.75005 15.5391C1.73911 12.7246 3.53286 10.3936 5.93911 9.39453L26.5454 0.811523C26.9938 0.607422 27.4969 0.5 28.0001 0.5ZM28.0001 7.67578V48.292C43.0938 41.1055 47.1516 25.2178 47.2501 15.6895L28.0001 7.67578Z" fill="white"/>
</g>
<defs>
<clipPath id="clip0_167_239">
<rect width="56" height="55" fill="white" transform="translate(0 0.5)"/>
</clipPath>
</defs>
</svg>
