<svg width="22" height="32" viewBox="0 0 22 32" fill="none" xmlns="http://www.w3.org/2000/svg">
<path d="M10.8216 22.8659C13.2914 20.8233 15.1562 18.8572 16.4161 16.9678C17.6759 15.0782 18.3058 13.3036 18.3058 11.6441C18.3058 9.34606 17.6072 7.45651 16.2102 5.97565C14.8132 4.49468 13.017 3.75419 10.8216 3.75419C8.62621 3.75419 6.83 4.49468 5.43299 5.97565C4.03598 7.45651 3.33742 9.34606 3.33742 11.6441C3.33742 13.3036 3.96729 15.0782 5.22714 16.9678C6.48698 18.8572 8.35188 20.8233 10.8216 22.8659ZM10.8216 26.7342C7.30409 24.0788 4.67837 21.4999 2.94454 18.9976C1.21072 16.4953 0.34375 14.0441 0.34375 11.6441C0.34375 8.45237 1.31675 5.8288 3.26263 3.77336C5.20852 1.71791 7.7281 0.690186 10.8216 0.690186C13.9151 0.690186 16.4347 1.71791 18.3807 3.77336C20.3266 5.8288 21.2995 8.45237 21.2995 11.6441C21.2995 14.0441 20.4325 16.4953 18.6987 18.9976C16.9648 21.4999 14.3391 24.0788 10.8216 26.7342ZM10.8216 14.4782C11.6449 14.4782 12.3496 14.1782 12.9359 13.5782C13.5221 12.9781 13.8153 12.2569 13.8153 11.4142C13.8153 10.5717 13.5221 9.85034 12.9359 9.25024C12.3496 8.65025 11.6449 8.3502 10.8216 8.3502C9.9984 8.3502 9.29363 8.65025 8.70731 9.25024C8.12109 9.85034 7.82793 10.5717 7.82793 11.4142C7.82793 12.2569 8.12109 12.9781 8.70731 13.5782C9.29363 14.1782 9.9984 14.4782 10.8216 14.4782ZM0.34375 31.3303V28.2662H21.2995V31.3303H0.34375Z" fill="#434343"/>
</svg>
