<svg width="28" height="28" viewBox="0 0 28 28" fill="none" xmlns="http://www.w3.org/2000/svg">
<path d="M25.7229 27.6771C22.6046 27.6771 19.5236 26.9819 16.4799 25.5903C13.4364 24.1987 10.6672 22.2254 8.17256 19.6728C5.67779 17.1191 3.75063 14.2846 2.39096 11.1694C1.0314 8.05523 0.351562 4.90098 0.351562 1.70974C0.351562 1.25002 0.501247 0.867074 0.800614 0.560674C1.09998 0.254273 1.47414 0.101074 1.92329 0.101074H7.98543C8.33465 0.101074 8.64654 0.222408 8.92097 0.464966C9.19541 0.707524 9.35751 0.99476 9.40748 1.32668L10.3804 6.68813C10.4302 7.09704 10.4178 7.44244 10.3429 7.72321C10.2681 8.00399 10.1309 8.24576 9.93131 8.45078L6.30146 12.2045C6.80048 13.1482 7.3929 14.0618 8.07894 14.942C8.76498 15.8233 9.51971 16.6723 10.3429 17.489C11.1163 18.2812 11.9271 19.0155 12.7753 19.6918C13.6235 20.3681 14.5216 20.9876 15.4696 21.5491L18.9871 17.9492C19.2117 17.7197 19.5049 17.547 19.8666 17.4322C20.2283 17.3174 20.5838 17.2851 20.933 17.3364L26.0971 18.4082C26.4464 18.5107 26.7333 18.6957 26.9578 18.9642C27.1824 19.2316 27.2946 19.5324 27.2946 19.8645V26.0683C27.2946 26.5284 27.1449 26.9117 26.8456 27.217C26.5462 27.5245 26.172 27.6771 25.7229 27.6771ZM4.87952 9.29309L7.34924 6.76501L6.71317 3.16508H3.38268C3.50744 4.21197 3.68205 5.24637 3.90652 6.26697C4.1311 7.28867 4.4554 8.29701 4.87952 9.29309ZM18.2761 23.0042C19.2491 23.4388 20.2408 23.7831 21.2511 24.0382C22.2615 24.2945 23.2781 24.4605 24.3009 24.5362V21.1658L20.7834 20.4383L18.2761 23.0042Z" fill="#434343"/>
</svg>
