<svg width="30" height="25" viewBox="0 0 30 25" fill="none" xmlns="http://www.w3.org/2000/svg">
<path d="M3.66851 24.2097C2.87023 24.2097 2.1868 23.9189 1.61833 23.3362C1.04986 22.7546 0.765625 22.0549 0.765625 21.2382V3.41124C0.765625 2.59454 1.04986 1.89484 1.61833 1.31323C2.1868 0.731627 2.87023 0.439697 3.66851 0.439697H26.8922C27.6905 0.439697 28.3739 0.731627 28.9424 1.31323C29.5109 1.89484 29.7951 2.59454 29.7951 3.41124V21.2382C29.7951 22.0549 29.5109 22.7546 28.9424 23.3362C28.3739 23.9189 27.6905 24.2097 26.8922 24.2097H3.66851ZM15.2804 13.8099L3.66851 6.38277V21.2382H26.8922V6.38277L15.2804 13.8099ZM15.2804 10.8395L26.8922 3.41124H3.66851L15.2804 10.8395ZM3.66851 6.38277V3.41124V21.2382V6.38277Z" fill="#434343"/>
</svg>
