<svg width="60" height="60" viewBox="0 0 60 60" fill="none" xmlns="http://www.w3.org/2000/svg">
<path d="M15 55V44.25C12.625 42.0833 10.7812 39.5521 9.46875 36.6562C8.15625 33.7604 7.5 30.7083 7.5 27.5C7.5 21.25 9.6875 15.9375 14.0625 11.5625C18.4375 7.1875 23.75 5 30 5C35.2083 5 39.8229 6.53125 43.8438 9.59375C47.8646 12.6562 50.4792 16.6458 51.6875 21.5625L54.9375 34.375C55.1458 35.1667 55 35.8854 54.5 36.5312C54 37.1771 53.3333 37.5 52.5 37.5H47.5V45C47.5 46.375 47.0104 47.5521 46.0312 48.5312C45.0521 49.5104 43.875 50 42.5 50H37.5V55H32.5V45H42.5V32.5H49.25L46.875 22.8125C45.9167 19.0208 43.875 15.9375 40.75 13.5625C37.625 11.1875 34.0417 10 30 10C25.1667 10 21.0417 11.6875 17.625 15.0625C14.2083 18.4375 12.5 22.5417 12.5 27.375C12.5 29.875 13.0104 32.25 14.0312 34.5C15.0521 36.75 16.5 38.75 18.375 40.5L20 42V55H15ZM27.5 37.5H32.5L32.875 34.375C33.2083 34.25 33.5104 34.1042 33.7812 33.9375C34.0521 33.7708 34.2917 33.5833 34.5 33.375L37.375 34.625L39.875 30.375L37.375 28.5C37.4583 28.1667 37.5 27.8333 37.5 27.5C37.5 27.1667 37.4583 26.8333 37.375 26.5L39.875 24.625L37.375 20.375L34.5 21.625C34.2917 21.4167 34.0521 21.2292 33.7812 21.0625C33.5104 20.8958 33.2083 20.75 32.875 20.625L32.5 17.5H27.5L27.125 20.625C26.7917 20.75 26.4896 20.8958 26.2188 21.0625C25.9479 21.2292 25.7083 21.4167 25.5 21.625L22.625 20.375L20.125 24.625L22.625 26.5C22.5417 26.8333 22.5 27.1667 22.5 27.5C22.5 27.8333 22.5417 28.1667 22.625 28.5L20.125 30.375L22.625 34.625L25.5 33.375C25.7083 33.5833 25.9479 33.7708 26.2188 33.9375C26.4896 34.1042 26.7917 34.25 27.125 34.375L27.5 37.5ZM30 31.25C28.9583 31.25 28.0729 30.8854 27.3438 30.1562C26.6146 29.4271 26.25 28.5417 26.25 27.5C26.25 26.4583 26.6146 25.5729 27.3438 24.8438C28.0729 24.1146 28.9583 23.75 30 23.75C31.0417 23.75 31.9271 24.1146 32.6562 24.8438C33.3854 25.5729 33.75 26.4583 33.75 27.5C33.75 28.5417 33.3854 29.4271 32.6562 30.1562C31.9271 30.8854 31.0417 31.25 30 31.25Z" fill="white"/>
</svg>
